<?xml version="1.0" encoding="UTF-8"?>
<svg xmlns="http://www.w3.org/2000/svg" width="256" height="256" viewBox="0 0 256 256" role="img" aria-labelledby="title desc">
  <title id="title">김포국제공항</title>
  <desc id="desc">gangseo landmark icon for Card Survival minimap.</desc>
  <defs>
    <filter id="softGlow" x="-20%" y="-20%" width="140%" height="140%">
      <feGaussianBlur stdDeviation="2.2" result="blur"/>
      <feMerge><feMergeNode in="blur"/><feMergeNode in="SourceGraphic"/></feMerge>
    </filter>
    <pattern id="hatch" width="9" height="9" patternUnits="userSpaceOnUse" patternTransform="rotate(-22)">
      <path d="M0 0V9" stroke="#d4c9a8" stroke-opacity=".13" stroke-width="1"/>
    </pattern>
  </defs>
  <g fill="none" stroke="#171512" stroke-width="9" stroke-linecap="round" stroke-linejoin="round" opacity=".78">
    
      <path d="M39 151 L218 99 L224 116 L143 148 L162 213 L145 220 L102 162 L54 180 L43 165 L86 149 Z"/>
      <path d="M33 204 H228"/>
      <path d="M48 126 V74 H82 V116 M52 74 H78 M65 58 V74"/>
      <path d="M104 128 H170 M116 119 H187"/>
  </g>
  <g fill="url(#hatch)" stroke="#d4c9a8" stroke-width="4.2" stroke-linecap="round" stroke-linejoin="round" filter="url(#softGlow)">
    
      <path d="M39 151 L218 99 L224 116 L143 148 L162 213 L145 220 L102 162 L54 180 L43 165 L86 149 Z"/>
      <path d="M33 204 H228"/>
      <path d="M48 126 V74 H82 V116 M52 74 H78 M65 58 V74"/>
      <path d="M104 128 H170 M116 119 H187"/>
  </g>
  <g fill="none" stroke="#f2ddb0" stroke-width="1.35" stroke-linecap="round" stroke-linejoin="round" opacity=".72">
    
      <path d="M39 151 L218 99 L224 116 L143 148 L162 213 L145 220 L102 162 L54 180 L43 165 L86 149 Z"/>
      <path d="M33 204 H228"/>
      <path d="M48 126 V74 H82 V116 M52 74 H78 M65 58 V74"/>
      <path d="M104 128 H170 M116 119 H187"/>
  </g>
</svg>
