<?xml version="1.0" encoding="UTF-8"?>
<svg xmlns="http://www.w3.org/2000/svg" width="256" height="256" viewBox="0 0 256 256" role="img" aria-labelledby="title desc">
  <title id="title">어린이대공원</title>
  <desc id="desc">gwangjin landmark icon for Card Survival minimap.</desc>
  <defs>
    <filter id="softGlow" x="-20%" y="-20%" width="140%" height="140%">
      <feGaussianBlur stdDeviation="2.2" result="blur"/>
      <feMerge><feMergeNode in="blur"/><feMergeNode in="SourceGraphic"/></feMerge>
    </filter>
    <pattern id="hatch" width="9" height="9" patternUnits="userSpaceOnUse" patternTransform="rotate(-22)">
      <path d="M0 0V9" stroke="#d4c9a8" stroke-opacity=".13" stroke-width="1"/>
    </pattern>
  </defs>
  <g fill="none" stroke="#171512" stroke-width="9" stroke-linecap="round" stroke-linejoin="round" opacity=".78">
    
      <path d="M44 213 V127 H214 V213"/>
      <path d="M58 127 L128 75 L200 127"/>
      <path d="M83 213 V154 H113 V213 M143 213 V154 H173 V213"/>
      <path d="M52 224 H220"/>
      <path d="M37 178 C54 154 74 154 91 178 M183 178 C200 154 220 154 237 178"/>
  </g>
  <g fill="url(#hatch)" stroke="#d4c9a8" stroke-width="4.2" stroke-linecap="round" stroke-linejoin="round" filter="url(#softGlow)">
    
      <path d="M44 213 V127 H214 V213"/>
      <path d="M58 127 L128 75 L200 127"/>
      <path d="M83 213 V154 H113 V213 M143 213 V154 H173 V213"/>
      <path d="M52 224 H220"/>
      <path d="M37 178 C54 154 74 154 91 178 M183 178 C200 154 220 154 237 178"/>
  </g>
  <g fill="none" stroke="#f2ddb0" stroke-width="1.35" stroke-linecap="round" stroke-linejoin="round" opacity=".72">
    
      <path d="M44 213 V127 H214 V213"/>
      <path d="M58 127 L128 75 L200 127"/>
      <path d="M83 213 V154 H113 V213 M143 213 V154 H173 V213"/>
      <path d="M52 224 H220"/>
      <path d="M37 178 C54 154 74 154 91 178 M183 178 C200 154 220 154 237 178"/>
  </g>
</svg>
