<?xml version="1.0" encoding="UTF-8"?>
<svg xmlns="http://www.w3.org/2000/svg" width="256" height="256" viewBox="0 0 256 256" role="img" aria-labelledby="title desc">
  <title id="title">홍대 지하상가</title>
  <desc id="desc">mapo landmark icon for Card Survival minimap.</desc>
  <defs>
    <filter id="softGlow" x="-20%" y="-20%" width="140%" height="140%">
      <feGaussianBlur stdDeviation="2.2" result="blur"/>
      <feMerge><feMergeNode in="blur"/><feMergeNode in="SourceGraphic"/></feMerge>
    </filter>
    <pattern id="hatch" width="9" height="9" patternUnits="userSpaceOnUse" patternTransform="rotate(-22)">
      <path d="M0 0V9" stroke="#d4c9a8" stroke-opacity=".13" stroke-width="1"/>
    </pattern>
  </defs>
  <g fill="none" stroke="#171512" stroke-width="9" stroke-linecap="round" stroke-linejoin="round" opacity=".78">
    
      <path d="M42 195 H213"/>
      <path d="M54 195 L83 138 L128 103 L173 138 L202 195"/>
      <path d="M83 138 H173 M104 118 H152"/>
      <path d="M99 195 V146 M128 195 V120 M157 195 V146"/>
      <path d="M167 92 V153 C154 145 144 149 144 160 C144 171 162 171 167 157"/>
      <path d="M167 92 H192 V106 H167"/>
  </g>
  <g fill="url(#hatch)" stroke="#d4c9a8" stroke-width="4.2" stroke-linecap="round" stroke-linejoin="round" filter="url(#softGlow)">
    
      <path d="M42 195 H213"/>
      <path d="M54 195 L83 138 L128 103 L173 138 L202 195"/>
      <path d="M83 138 H173 M104 118 H152"/>
      <path d="M99 195 V146 M128 195 V120 M157 195 V146"/>
      <path d="M167 92 V153 C154 145 144 149 144 160 C144 171 162 171 167 157"/>
      <path d="M167 92 H192 V106 H167"/>
  </g>
  <g fill="none" stroke="#f2ddb0" stroke-width="1.35" stroke-linecap="round" stroke-linejoin="round" opacity=".72">
    
      <path d="M42 195 H213"/>
      <path d="M54 195 L83 138 L128 103 L173 138 L202 195"/>
      <path d="M83 138 H173 M104 118 H152"/>
      <path d="M99 195 V146 M128 195 V120 M157 195 V146"/>
      <path d="M167 92 V153 C154 145 144 149 144 160 C144 171 162 171 167 157"/>
      <path d="M167 92 H192 V106 H167"/>
  </g>
</svg>
